<svg id="visual" viewBox="0 0 900 600" width="900" height="600" xmlns="http://www.w3.org/2000/svg" xmlns:xlink="http://www.w3.org/1999/xlink" version="1.1"><g stroke-width="1" stroke-linejoin="bevel"><path d="M396 309L401 411L520 381Z" fill="#0b4542" stroke="#0b4542"></path><path d="M520 381L539 293L396 309Z" fill="#0b4c48" stroke="#0b4c48"></path><path d="M401 411L437 480L520 381Z" fill="#0e5c52" stroke="#0e5c52"></path><path d="M437 480L569 428L520 381Z" fill="#0b4542" stroke="#0b4542"></path><path d="M520 381L598 322L539 293Z" fill="#247c62" stroke="#247c62"></path><path d="M569 428L598 322L520 381Z" fill="#0b3d3c" stroke="#0b3d3c"></path><path d="M266 422L324 461L401 411Z" fill="#0e5c52" stroke="#0e5c52"></path><path d="M401 411L324 461L437 480Z" fill="#0c3636" stroke="#0c3636"></path><path d="M634 182L506 191L539 293Z" fill="#0c544d" stroke="#0c544d"></path><path d="M539 293L506 191L396 309Z" fill="#0b4542" stroke="#0b4542"></path><path d="M506 191L401 187L396 309Z" fill="#0b4542" stroke="#0b4542"></path><path d="M396 309L266 422L401 411Z" fill="#0c544d" stroke="#0c544d"></path><path d="M403 600L533 534L437 480Z" fill="#0e5c52" stroke="#0e5c52"></path><path d="M437 480L533 534L569 428Z" fill="#176c5b" stroke="#176c5b"></path><path d="M264 294L266 422L396 309Z" fill="#0b3d3c" stroke="#0b3d3c"></path><path d="M287 214L264 294L396 309Z" fill="#0e5c52" stroke="#0e5c52"></path><path d="M401 187L287 214L396 309Z" fill="#126456" stroke="#126456"></path><path d="M533 534L602 533L569 428Z" fill="#0b4542" stroke="#0b4542"></path><path d="M569 428L693 412L598 322Z" fill="#0b3d3c" stroke="#0b3d3c"></path><path d="M321 600L403 600L324 461Z" fill="#0b4c48" stroke="#0b4c48"></path><path d="M324 461L403 600L437 480Z" fill="#0e5c52" stroke="#0e5c52"></path><path d="M533 534L518 600L602 533Z" fill="#0c3636" stroke="#0c3636"></path><path d="M264 294L207 400L266 422Z" fill="#176c5b" stroke="#176c5b"></path><path d="M214 600L321 600L324 461Z" fill="#126456" stroke="#126456"></path><path d="M182 338L207 400L264 294Z" fill="#176c5b" stroke="#176c5b"></path><path d="M602 533L693 412L569 428Z" fill="#0b3d3c" stroke="#0b3d3c"></path><path d="M598 322L634 182L539 293Z" fill="#0b4542" stroke="#0b4542"></path><path d="M403 600L518 600L533 534Z" fill="#126456" stroke="#126456"></path><path d="M685 197L634 182L598 322Z" fill="#0c2f30" stroke="#0c2f30"></path><path d="M398 83L303 136L401 187Z" fill="#0b4c48" stroke="#0b4c48"></path><path d="M401 187L303 136L287 214Z" fill="#0c2f30" stroke="#0c2f30"></path><path d="M117 290L182 338L264 294Z" fill="#0c544d" stroke="#0c544d"></path><path d="M398 83L401 187L506 191Z" fill="#0b4c48" stroke="#0b4c48"></path><path d="M230 172L264 294L287 214Z" fill="#176c5b" stroke="#176c5b"></path><path d="M161 531L324 461L266 422Z" fill="#0b4542" stroke="#0b4542"></path><path d="M693 412L726 325L598 322Z" fill="#1d745f" stroke="#1d745f"></path><path d="M624 112L530 91L506 191Z" fill="#0b4c48" stroke="#0b4c48"></path><path d="M530 91L398 83L506 191Z" fill="#0b4542" stroke="#0b4542"></path><path d="M726 325L685 197L598 322Z" fill="#0e5c52" stroke="#0e5c52"></path><path d="M634 182L624 112L506 191Z" fill="#0c3636" stroke="#0c3636"></path><path d="M187 110L230 172L303 136Z" fill="#0b3d3c" stroke="#0b3d3c"></path><path d="M303 136L230 172L287 214Z" fill="#176c5b" stroke="#176c5b"></path><path d="M518 600L624 600L602 533Z" fill="#247c62" stroke="#247c62"></path><path d="M602 533L714 517L693 412Z" fill="#0e5c52" stroke="#0e5c52"></path><path d="M693 412L774 339L726 325Z" fill="#247c62" stroke="#247c62"></path><path d="M685 197L624 112L634 182Z" fill="#247c62" stroke="#247c62"></path><path d="M699 600L714 517L602 533Z" fill="#126456" stroke="#126456"></path><path d="M830 390L774 339L693 412Z" fill="#176c5b" stroke="#176c5b"></path><path d="M726 325L832 203L685 197Z" fill="#0c3636" stroke="#0c3636"></path><path d="M107 494L161 531L207 400Z" fill="#0b4c48" stroke="#0b4c48"></path><path d="M207 400L161 531L266 422Z" fill="#1d745f" stroke="#1d745f"></path><path d="M161 531L214 600L324 461Z" fill="#0b4c48" stroke="#0b4c48"></path><path d="M230 172L117 290L264 294Z" fill="#1d745f" stroke="#1d745f"></path><path d="M182 338L83 369L207 400Z" fill="#126456" stroke="#126456"></path><path d="M624 600L699 600L602 533Z" fill="#126456" stroke="#126456"></path><path d="M714 517L830 390L693 412Z" fill="#0e5c52" stroke="#0e5c52"></path><path d="M502 0L398 83L530 91Z" fill="#1d745f" stroke="#1d745f"></path><path d="M502 0L408 0L398 83Z" fill="#126456" stroke="#126456"></path><path d="M398 83L309 0L303 136Z" fill="#0b4c48" stroke="#0b4c48"></path><path d="M595 0L502 0L530 91Z" fill="#176c5b" stroke="#176c5b"></path><path d="M309 0L187 110L303 136Z" fill="#0e5c52" stroke="#0e5c52"></path><path d="M230 172L128 168L117 290Z" fill="#0e5c52" stroke="#0e5c52"></path><path d="M685 197L737 128L624 112Z" fill="#0b4c48" stroke="#0b4c48"></path><path d="M624 112L595 0L530 91Z" fill="#0b4542" stroke="#0b4542"></path><path d="M832 203L737 128L685 197Z" fill="#1d745f" stroke="#1d745f"></path><path d="M117 290L83 369L182 338Z" fill="#1d745f" stroke="#1d745f"></path><path d="M0 418L83 369L0 280Z" fill="#0b4542" stroke="#0b4542"></path><path d="M83 369L107 494L207 400Z" fill="#0b4542" stroke="#0b4542"></path><path d="M161 531L98 600L214 600Z" fill="#0c2f30" stroke="#0c2f30"></path><path d="M187 110L128 168L230 172Z" fill="#126456" stroke="#126456"></path><path d="M824 522L830 390L714 517Z" fill="#176c5b" stroke="#176c5b"></path><path d="M774 339L832 203L726 325Z" fill="#0b3d3c" stroke="#0b3d3c"></path><path d="M408 0L309 0L398 83Z" fill="#0b4c48" stroke="#0b4c48"></path><path d="M699 0L595 0L624 112Z" fill="#0b3d3c" stroke="#0b3d3c"></path><path d="M818 600L824 522L714 517Z" fill="#247c62" stroke="#247c62"></path><path d="M900 303L832 203L774 339Z" fill="#176c5b" stroke="#176c5b"></path><path d="M737 128L699 0L624 112Z" fill="#0c2f30" stroke="#0c2f30"></path><path d="M0 502L98 600L107 494Z" fill="#0b4c48" stroke="#0b4c48"></path><path d="M107 494L98 600L161 531Z" fill="#1d745f" stroke="#1d745f"></path><path d="M771 60L699 0L737 128Z" fill="#126456" stroke="#126456"></path><path d="M832 203L771 60L737 128Z" fill="#1d745f" stroke="#1d745f"></path><path d="M699 600L818 600L714 517Z" fill="#176c5b" stroke="#176c5b"></path><path d="M309 0L190 0L187 110Z" fill="#0c3636" stroke="#0c3636"></path><path d="M187 110L71 101L128 168Z" fill="#0b3d3c" stroke="#0b3d3c"></path><path d="M900 495L900 391L830 390Z" fill="#0c3636" stroke="#0c3636"></path><path d="M830 390L900 303L774 339Z" fill="#0b4542" stroke="#0b4542"></path><path d="M900 495L830 390L824 522Z" fill="#0e5c52" stroke="#0e5c52"></path><path d="M900 391L900 303L830 390Z" fill="#0c3636" stroke="#0c3636"></path><path d="M832 203L900 75L771 60Z" fill="#0b4542" stroke="#0b4542"></path><path d="M0 280L83 369L117 290Z" fill="#0b3d3c" stroke="#0b3d3c"></path><path d="M83 369L0 418L107 494Z" fill="#176c5b" stroke="#176c5b"></path><path d="M0 280L117 290L0 220Z" fill="#0b4c48" stroke="#0b4c48"></path><path d="M0 220L117 290L128 168Z" fill="#126456" stroke="#126456"></path><path d="M137 0L71 101L187 110Z" fill="#1d745f" stroke="#1d745f"></path><path d="M900 303L900 228L832 203Z" fill="#0c544d" stroke="#0c544d"></path><path d="M900 600L900 495L824 522Z" fill="#176c5b" stroke="#176c5b"></path><path d="M71 101L0 220L128 168Z" fill="#0e5c52" stroke="#0e5c52"></path><path d="M0 418L0 502L107 494Z" fill="#247c62" stroke="#247c62"></path><path d="M190 0L137 0L187 110Z" fill="#0b4542" stroke="#0b4542"></path><path d="M900 75L790 0L771 60Z" fill="#0b4542" stroke="#0b4542"></path><path d="M771 60L790 0L699 0Z" fill="#0b4c48" stroke="#0b4c48"></path><path d="M818 600L900 600L824 522Z" fill="#0b3d3c" stroke="#0b3d3c"></path><path d="M0 502L0 600L98 600Z" fill="#0c544d" stroke="#0c544d"></path><path d="M0 0L0 85L71 101Z" fill="#247c62" stroke="#247c62"></path><path d="M71 101L0 85L0 220Z" fill="#0b4c48" stroke="#0b4c48"></path><path d="M900 228L900 75L832 203Z" fill="#0c3636" stroke="#0c3636"></path><path d="M900 75L900 0L790 0Z" fill="#0c544d" stroke="#0c544d"></path><path d="M137 0L0 0L71 101Z" fill="#0b4c48" stroke="#0b4c48"></path></g></svg>